<svg width="1200" height="620" viewBox="0 0 1200 620" fill="none" xmlns="http://www.w3.org/2000/svg">
  <rect width="1200" height="620" fill="transparent"/>
  <g fill="#ffffff" fill-opacity="0.8">
    <path d="M143 218C188 178 251 167 307 190C337 202 358 225 392 232C425 239 461 225 492 241C526 258 531 299 508 326C482 357 434 348 397 353C353 359 319 392 275 398C226 405 183 376 153 339C124 303 106 251 143 218Z"/>
    <path d="M532 190C602 144 699 138 776 174C826 197 871 232 926 238C970 243 1017 228 1055 251C1093 273 1099 321 1072 351C1038 389 979 373 935 389C884 408 853 463 798 473C733 485 690 427 631 410C589 398 538 408 505 378C474 350 473 303 493 265C503 245 515 211 532 190Z"/>
    <path d="M188 451C246 430 319 431 366 473C394 499 404 540 384 570C351 619 269 603 216 582C173 565 132 536 136 493C138 474 156 463 188 451Z"/>
    <path d="M879 492C912 470 966 476 990 509C1011 539 995 579 960 592C920 606 862 590 848 550C841 528 853 509 879 492Z"/>
  </g>
</svg>
